<!-- High-tech background pattern SVG -->
<svg xmlns="http://www.w3.org/2000/svg" width="1920" height="1080" viewBox="0 0 1920 1080">
  <defs>
    <pattern id="grid" width="100" height="100" patternUnits="userSpaceOnUse">
      <path d="M 100 0 L 0 0 0 100" fill="none" stroke="#00d4ff" stroke-width="0.5" opacity="0.3"/>
    </pattern>
    <pattern id="dots" width="50" height="50" patternUnits="userSpaceOnUse">
      <circle cx="25" cy="25" r="1" fill="#00ff88" opacity="0.4"/>
    </pattern>
    <linearGradient id="bgGradient" x1="0%" y1="0%" x2="100%" y2="100%">
      <stop offset="0%" style="stop-color:#0d1b2a;stop-opacity:1" />
      <stop offset="50%" style="stop-color:#1b263b;stop-opacity:1" />
      <stop offset="100%" style="stop-color:#0d1b2a;stop-opacity:1" />
    </linearGradient>
  </defs>
  
  <!-- Background -->
  <rect width="1920" height="1080" fill="url(#bgGradient)"/>
  
  <!-- Grid pattern -->
  <rect width="1920" height="1080" fill="url(#grid)"/>
  
  <!-- Dot pattern -->
  <rect width="1920" height="1080" fill="url(#dots)"/>
  
  <!-- Circuit lines -->
  <g stroke="#00d4ff" stroke-width="1" fill="none" opacity="0.2">
    <!-- Horizontal lines -->
    <line x1="0" y1="200" x2="1920" y2="200"/>
    <line x1="0" y1="400" x2="1920" y2="400"/>
    <line x1="0" y1="600" x2="1920" y2="600"/>
    <line x1="0" y1="800" x2="1920" y2="800"/>
    
    <!-- Vertical lines -->
    <line x1="300" y1="0" x2="300" y2="1080"/>
    <line x1="600" y1="0" x2="600" y2="1080"/>
    <line x1="900" y1="0" x2="900" y2="1080"/>
    <line x1="1200" y1="0" x2="1200" y2="1080"/>
    <line x1="1500" y1="0" x2="1500" y2="1080"/>
    
    <!-- Connection nodes -->
    <circle cx="300" cy="200" r="4"/>
    <circle cx="600" cy="400" r="4"/>
    <circle cx="900" cy="600" r="4"/>
    <circle cx="1200" cy="800" r="4"/>
    <circle cx="1500" cy="400" r="4"/>
  </g>
  
  <!-- Glowing elements -->
  <g opacity="0.6">
    <circle cx="100" cy="100" r="20" fill="none" stroke="#00ff88" stroke-width="2">
      <animate attributeName="r" values="20;25;20" dur="3s" repeatCount="indefinite"/>
    </circle>
    <circle cx="1800" cy="200" r="15" fill="none" stroke="#00d4ff" stroke-width="2">
      <animate attributeName="r" values="15;20;15" dur="4s" repeatCount="indefinite"/>
    </circle>
    <circle cx="500" cy="900" r="18" fill="none" stroke="#ff6b35" stroke-width="2">
      <animate attributeName="r" values="18;23;18" dur="5s" repeatCount="indefinite"/>
    </circle>
  </g>
</svg>