<!-- This is a placeholder for the SHIELD logo SVG -->
<svg xmlns="http://www.w3.org/2000/svg" width="200" height="200" viewBox="0 0 200 200">
  <defs>
    <linearGradient id="shieldGradient" x1="0%" y1="0%" x2="100%" y2="100%">
      <stop offset="0%" style="stop-color:#00d4ff;stop-opacity:1" />
      <stop offset="100%" style="stop-color:#00ff88;stop-opacity:1" />
    </linearGradient>
    <filter id="glow">
      <feGaussianBlur stdDeviation="3" result="coloredBlur"/>
      <feMerge> 
        <feMergeNode in="coloredBlur"/>
        <feMergeNode in="SourceGraphic"/>
      </feMerge>
    </filter>
  </defs>
  
  <!-- Shield outline -->
  <path d="M100 20 L170 50 L170 120 Q170 150 100 180 Q30 150 30 120 L30 50 Z" 
        fill="url(#shieldGradient)" 
        stroke="#00d4ff" 
        stroke-width="2" 
        filter="url(#glow)" 
        opacity="0.9"/>
  
  <!-- Inner shield design -->
  <path d="M100 35 L150 55 L150 110 Q150 130 100 150 Q50 130 50 110 L50 55 Z" 
        fill="none" 
        stroke="#0d1b2a" 
        stroke-width="2"/>
  
  <!-- Central S -->
  <text x="100" y="105" 
        font-family="Orbitron, monospace" 
        font-size="48" 
        font-weight="900" 
        text-anchor="middle" 
        dominant-baseline="middle" 
        fill="#0d1b2a">S</text>
  
  <!-- Circuit pattern -->
  <g stroke="#0d1b2a" stroke-width="1" fill="none" opacity="0.6">
    <circle cx="70" cy="70" r="3"/>
    <circle cx="130" cy="70" r="3"/>
    <circle cx="70" cy="130" r="3"/>
    <circle cx="130" cy="130" r="3"/>
    <line x1="70" y1="70" x2="100" y2="85"/>
    <line x1="130" y1="70" x2="100" y2="85"/>
    <line x1="70" y1="130" x2="100" y2="115"/>
    <line x1="130" y1="130" x2="100" y2="115"/>
  </g>
</svg>